<svg width="177" height="59" viewBox="0 0 177 59" fill="none" xmlns="http://www.w3.org/2000/svg">
<path d="M56.4255 29.04H63.1455V33H51.2955V11.94H56.4255V29.04ZM64.5724 24.6C64.5724 22.88 64.8924 21.37 65.5324 20.07C66.1924 18.77 67.0824 17.77 68.2024 17.07C69.3224 16.37 70.5724 16.02 71.9524 16.02C73.1324 16.02 74.1624 16.26 75.0424 16.74C75.9424 17.22 76.6324 17.85 77.1124 18.63V16.26H82.2424V33H77.1124V30.63C76.6124 31.41 75.9124 32.04 75.0124 32.52C74.1324 33 73.1024 33.24 71.9224 33.24C70.5624 33.24 69.3224 32.89 68.2024 32.19C67.0824 31.47 66.1924 30.46 65.5324 29.16C64.8924 27.84 64.5724 26.32 64.5724 24.6ZM77.1124 24.63C77.1124 23.35 76.7524 22.34 76.0324 21.6C75.3324 20.86 74.4724 20.49 73.4524 20.49C72.4324 20.49 71.5624 20.86 70.8424 21.6C70.1424 22.32 69.7924 23.32 69.7924 24.6C69.7924 25.88 70.1424 26.9 70.8424 27.66C71.5624 28.4 72.4324 28.77 73.4524 28.77C74.4724 28.77 75.3324 28.4 76.0324 27.66C76.7524 26.92 77.1124 25.91 77.1124 24.63ZM91.0838 18.63C91.5638 17.85 92.2538 17.22 93.1538 16.74C94.0538 16.26 95.0838 16.02 96.2438 16.02C97.6238 16.02 98.8738 16.37 99.9938 17.07C101.114 17.77 101.994 18.77 102.634 20.07C103.294 21.37 103.624 22.88 103.624 24.6C103.624 26.32 103.294 27.84 102.634 29.16C101.994 30.46 101.114 31.47 99.9938 32.19C98.8738 32.89 97.6238 33.24 96.2438 33.24C95.0638 33.24 94.0338 33.01 93.1538 32.55C92.2738 32.07 91.5838 31.44 91.0838 30.66V33H85.9538V10.8H91.0838V18.63ZM98.4038 24.6C98.4038 23.32 98.0438 22.32 97.3238 21.6C96.6238 20.86 95.7538 20.49 94.7138 20.49C93.6938 20.49 92.8238 20.86 92.1038 21.6C91.4038 22.34 91.0538 23.35 91.0538 24.63C91.0538 25.91 91.4038 26.92 92.1038 27.66C92.8238 28.4 93.6938 28.77 94.7138 28.77C95.7338 28.77 96.6038 28.4 97.3238 27.66C98.0438 26.9 98.4038 25.88 98.4038 24.6ZM113.125 33.24C111.665 33.24 110.365 32.99 109.225 32.49C108.085 31.99 107.185 31.31 106.525 30.45C105.865 29.57 105.495 28.59 105.415 27.51H110.485C110.545 28.09 110.815 28.56 111.295 28.92C111.775 29.28 112.365 29.46 113.065 29.46C113.705 29.46 114.195 29.34 114.535 29.1C114.895 28.84 115.075 28.51 115.075 28.11C115.075 27.63 114.825 27.28 114.325 27.06C113.825 26.82 113.015 26.56 111.895 26.28C110.695 26 109.695 25.71 108.895 25.41C108.095 25.09 107.405 24.6 106.825 23.94C106.245 23.26 105.955 22.35 105.955 21.21C105.955 20.25 106.215 19.38 106.735 18.6C107.275 17.8 108.055 17.17 109.075 16.71C110.115 16.25 111.345 16.02 112.765 16.02C114.865 16.02 116.515 16.54 117.715 17.58C118.935 18.62 119.635 20 119.815 21.72H115.075C114.995 21.14 114.735 20.68 114.295 20.34C113.875 20 113.315 19.83 112.615 19.83C112.015 19.83 111.555 19.95 111.235 20.19C110.915 20.41 110.755 20.72 110.755 21.12C110.755 21.6 111.005 21.96 111.505 22.2C112.025 22.44 112.825 22.68 113.905 22.92C115.145 23.24 116.155 23.56 116.935 23.88C117.715 24.18 118.395 24.68 118.975 25.38C119.575 26.06 119.885 26.98 119.905 28.14C119.905 29.12 119.625 30 119.065 30.78C118.525 31.54 117.735 32.14 116.695 32.58C115.675 33.02 114.485 33.24 113.125 33.24ZM132.374 28.65V33H129.764C127.904 33 126.454 32.55 125.414 31.65C124.374 30.73 123.854 29.24 123.854 27.18V20.52H121.814V16.26H123.854V12.18H128.984V16.26H132.344V20.52H128.984V27.24C128.984 27.74 129.104 28.1 129.344 28.32C129.584 28.54 129.984 28.65 130.544 28.65H132.374ZM134.211 24.6C134.211 22.88 134.531 21.37 135.171 20.07C135.831 18.77 136.721 17.77 137.841 17.07C138.961 16.37 140.211 16.02 141.591 16.02C142.771 16.02 143.801 16.26 144.681 16.74C145.581 17.22 146.271 17.85 146.751 18.63V16.26H151.881V33H146.751V30.63C146.251 31.41 145.551 32.04 144.651 32.52C143.771 33 142.741 33.24 141.561 33.24C140.201 33.24 138.961 32.89 137.841 32.19C136.721 31.47 135.831 30.46 135.171 29.16C134.531 27.84 134.211 26.32 134.211 24.6ZM146.751 24.63C146.751 23.35 146.391 22.34 145.671 21.6C144.971 20.86 144.111 20.49 143.091 20.49C142.071 20.49 141.201 20.86 140.481 21.6C139.781 22.32 139.431 23.32 139.431 24.6C139.431 25.88 139.781 26.9 140.481 27.66C141.201 28.4 142.071 28.77 143.091 28.77C144.111 28.77 144.971 28.4 145.671 27.66C146.391 26.92 146.751 25.91 146.751 24.63ZM160.722 19.05C161.322 18.13 162.072 17.41 162.972 16.89C163.872 16.35 164.872 16.08 165.972 16.08V21.51H164.562C163.282 21.51 162.322 21.79 161.682 22.35C161.042 22.89 160.722 23.85 160.722 25.23V33H155.592V16.26H160.722V19.05Z" fill="black"/>
<path d="M50.612 55V44.0909H51.9331V53.8281H57.0041V55H50.612ZM61.8868 55.1918C61.3683 55.1918 60.8978 55.0941 60.4752 54.8988C60.0526 54.6999 59.717 54.4141 59.4684 54.0412C59.2199 53.6648 59.0956 53.2102 59.0956 52.6776C59.0956 52.2088 59.1879 51.8288 59.3726 51.5376C59.5572 51.2429 59.804 51.0121 60.113 50.8452C60.4219 50.6783 60.7628 50.554 61.1357 50.4723C61.5121 50.3871 61.8903 50.3196 62.2703 50.2699C62.7674 50.206 63.1705 50.158 63.4794 50.1261C63.7919 50.0906 64.0192 50.032 64.1613 49.9503C64.3069 49.8686 64.3797 49.7266 64.3797 49.5241V49.4815C64.3797 48.956 64.2358 48.5476 63.9482 48.2564C63.6641 47.9652 63.2326 47.8196 62.6538 47.8196C62.0537 47.8196 61.5831 47.951 61.2422 48.2138C60.9013 48.4766 60.6616 48.7571 60.5231 49.0554L59.3299 48.6293C59.543 48.1321 59.8271 47.745 60.1822 47.468C60.5409 47.1875 60.9315 46.9922 61.3541 46.8821C61.7802 46.7685 62.1993 46.7116 62.6112 46.7116C62.874 46.7116 63.1758 46.7436 63.5167 46.8075C63.8612 46.8679 64.1932 46.994 64.5128 47.1857C64.836 47.3775 65.1041 47.6669 65.3172 48.054C65.5302 48.4411 65.6368 48.9595 65.6368 49.6094V55H64.3797V53.892H64.3157C64.2305 54.0696 64.0885 54.2596 63.8896 54.462C63.6907 54.6644 63.4262 54.8366 63.0959 54.9787C62.7657 55.1207 62.3626 55.1918 61.8868 55.1918ZM62.0785 54.0625C62.5757 54.0625 62.9947 53.9648 63.3356 53.7695C63.6801 53.5742 63.9393 53.3221 64.1133 53.0131C64.2909 52.7042 64.3797 52.3793 64.3797 52.0384V50.8878C64.3264 50.9517 64.2092 51.0103 64.0281 51.0636C63.8505 51.1133 63.6446 51.1577 63.4102 51.1967C63.1794 51.2322 62.9539 51.2642 62.7337 51.2926C62.5171 51.3175 62.3413 51.3388 62.2064 51.3565C61.8797 51.3991 61.5743 51.4684 61.2902 51.5643C61.0096 51.6566 60.7824 51.7969 60.6083 51.9851C60.4379 52.1697 60.3527 52.4219 60.3527 52.7415C60.3527 53.1783 60.5142 53.5085 60.8374 53.7322C61.1641 53.9524 61.5778 54.0625 62.0785 54.0625ZM68.7017 55V44.0909H69.9588V48.1179H70.0653C70.1577 47.9759 70.2855 47.7947 70.4488 47.5746C70.6158 47.3509 70.8537 47.152 71.1626 46.978C71.4751 46.8004 71.8977 46.7116 72.4304 46.7116C73.1193 46.7116 73.7265 46.8839 74.2521 47.2283C74.7777 47.5728 75.1878 48.0611 75.4826 48.6932C75.7773 49.3253 75.9247 50.071 75.9247 50.9304C75.9247 51.7969 75.7773 52.5479 75.4826 53.1836C75.1878 53.8157 74.7795 54.3058 74.2574 54.6538C73.7354 54.9982 73.1335 55.1705 72.4517 55.1705C71.9261 55.1705 71.5053 55.0835 71.1893 54.9094C70.8732 54.7319 70.63 54.5312 70.4595 54.3075C70.289 54.0803 70.1577 53.892 70.0653 53.7429H69.9162V55H68.7017ZM69.9375 50.9091C69.9375 51.527 70.028 52.0721 70.2091 52.5444C70.3903 53.0131 70.6548 53.3807 71.0028 53.647C71.3508 53.9098 71.777 54.0412 72.2812 54.0412C72.8068 54.0412 73.2454 53.9027 73.5969 53.6257C73.952 53.3452 74.2184 52.9687 74.3959 52.4964C74.577 52.0206 74.6676 51.4915 74.6676 50.9091C74.6676 50.3338 74.5788 49.8153 74.4013 49.3537C74.2273 48.8885 73.9627 48.521 73.6076 48.2511C73.256 47.9776 72.8139 47.8409 72.2812 47.8409C71.7699 47.8409 71.3402 47.9705 70.9922 48.2298C70.6442 48.4854 70.3814 48.8441 70.2038 49.3058C70.0263 49.7638 69.9375 50.2983 69.9375 50.9091ZM81.7715 55.1705C81.0329 55.1705 80.3848 54.9947 79.8273 54.6431C79.2733 54.2915 78.84 53.7997 78.5275 53.1676C78.2186 52.5355 78.0641 51.7969 78.0641 50.9517C78.0641 50.0994 78.2186 49.3555 78.5275 48.7198C78.84 48.0842 79.2733 47.5906 79.8273 47.239C80.3848 46.8874 81.0329 46.7116 81.7715 46.7116C82.5101 46.7116 83.1564 46.8874 83.7104 47.239C84.268 47.5906 84.7012 48.0842 85.0101 48.7198C85.3226 49.3555 85.4789 50.0994 85.4789 50.9517C85.4789 51.7969 85.3226 52.5355 85.0101 53.1676C84.7012 53.7997 84.268 54.2915 83.7104 54.6431C83.1564 54.9947 82.5101 55.1705 81.7715 55.1705ZM81.7715 54.0412C82.3326 54.0412 82.7942 53.8974 83.1564 53.6097C83.5187 53.3221 83.7868 52.9439 83.9608 52.4751C84.1348 52.0064 84.2218 51.4986 84.2218 50.9517C84.2218 50.4048 84.1348 49.8952 83.9608 49.4229C83.7868 48.9506 83.5187 48.5689 83.1564 48.2777C82.7942 47.9865 82.3326 47.8409 81.7715 47.8409C81.2104 47.8409 80.7488 47.9865 80.3866 48.2777C80.0243 48.5689 79.7562 48.9506 79.5822 49.4229C79.4082 49.8952 79.3212 50.4048 79.3212 50.9517C79.3212 51.4986 79.4082 52.0064 79.5822 52.4751C79.7562 52.9439 80.0243 53.3221 80.3866 53.6097C80.7488 53.8974 81.2104 54.0412 81.7715 54.0412ZM87.9978 55V46.8182H89.2123V48.054H89.2976C89.4467 47.6491 89.7166 47.3207 90.1072 47.0685C90.4978 46.8164 90.9382 46.6903 91.4282 46.6903C91.5206 46.6903 91.636 46.6921 91.7745 46.6957C91.913 46.6992 92.0177 46.7045 92.0887 46.7116V47.9901C92.0461 47.9794 91.9485 47.9634 91.7958 47.9421C91.6466 47.9173 91.4886 47.9048 91.3217 47.9048C90.924 47.9048 90.5689 47.9883 90.2564 48.1552C89.9474 48.3185 89.7024 48.5458 89.5213 48.837C89.3437 49.1246 89.2549 49.4531 89.2549 49.8224V55H87.9978ZM96.5866 55.1918C96.0681 55.1918 95.5976 55.0941 95.175 54.8988C94.7524 54.6999 94.4168 54.4141 94.1682 54.0412C93.9197 53.6648 93.7954 53.2102 93.7954 52.6776C93.7954 52.2088 93.8877 51.8288 94.0724 51.5376C94.257 51.2429 94.5038 51.0121 94.8128 50.8452C95.1217 50.6783 95.4626 50.554 95.8355 50.4723C96.2119 50.3871 96.5901 50.3196 96.9701 50.2699C97.4672 50.206 97.8703 50.158 98.1792 50.1261C98.4917 50.0906 98.719 50.032 98.8611 49.9503C99.0067 49.8686 99.0795 49.7266 99.0795 49.5241V49.4815C99.0795 48.956 98.9356 48.5476 98.648 48.2564C98.3639 47.9652 97.9324 47.8196 97.3536 47.8196C96.7535 47.8196 96.2829 47.951 95.942 48.2138C95.6011 48.4766 95.3614 48.7571 95.2229 49.0554L94.0297 48.6293C94.2428 48.1321 94.5269 47.745 94.882 47.468C95.2407 47.1875 95.6313 46.9922 96.0539 46.8821C96.48 46.7685 96.8991 46.7116 97.311 46.7116C97.5738 46.7116 97.8756 46.7436 98.2165 46.8075C98.561 46.8679 98.893 46.994 99.2126 47.1857C99.5358 47.3775 99.8039 47.6669 100.017 48.054C100.23 48.4411 100.337 48.9595 100.337 49.6094V55H99.0795V53.892H99.0155C98.9303 54.0696 98.7883 54.2596 98.5894 54.462C98.3905 54.6644 98.126 54.8366 97.7957 54.9787C97.4655 55.1207 97.0624 55.1918 96.5866 55.1918ZM96.7783 54.0625C97.2755 54.0625 97.6945 53.9648 98.0354 53.7695C98.3799 53.5742 98.6391 53.3221 98.8131 53.0131C98.9907 52.7042 99.0795 52.3793 99.0795 52.0384V50.8878C99.0262 50.9517 98.909 51.0103 98.7279 51.0636C98.5503 51.1133 98.3444 51.1577 98.11 51.1967C97.8792 51.2322 97.6537 51.2642 97.4335 51.2926C97.2169 51.3175 97.0411 51.3388 96.9062 51.3565C96.5795 51.3991 96.2741 51.4684 95.99 51.5643C95.7094 51.6566 95.4822 51.7969 95.3081 51.9851C95.1377 52.1697 95.0525 52.4219 95.0525 52.7415C95.0525 53.1783 95.214 53.5085 95.5372 53.7322C95.8639 53.9524 96.2776 54.0625 96.7783 54.0625ZM106.789 46.8182V47.8835H102.549V46.8182H106.789ZM103.785 44.858H105.042V52.6562C105.042 53.0114 105.094 53.2777 105.197 53.4553C105.303 53.6293 105.438 53.7464 105.601 53.8068C105.768 53.8636 105.944 53.892 106.129 53.892C106.267 53.892 106.381 53.8849 106.47 53.8707C106.558 53.853 106.629 53.8388 106.683 53.8281L106.938 54.9574C106.853 54.9893 106.734 55.0213 106.582 55.0533C106.429 55.0888 106.235 55.1065 106.001 55.1065C105.646 55.1065 105.298 55.0302 104.957 54.8775C104.62 54.7248 104.339 54.4922 104.115 54.1797C103.895 53.8672 103.785 53.473 103.785 52.9972V44.858ZM112.516 55.1705C111.778 55.1705 111.13 54.9947 110.572 54.6431C110.018 54.2915 109.585 53.7997 109.272 53.1676C108.963 52.5355 108.809 51.7969 108.809 50.9517C108.809 50.0994 108.963 49.3555 109.272 48.7198C109.585 48.0842 110.018 47.5906 110.572 47.239C111.13 46.8874 111.778 46.7116 112.516 46.7116C113.255 46.7116 113.901 46.8874 114.455 47.239C115.013 47.5906 115.446 48.0842 115.755 48.7198C116.067 49.3555 116.224 50.0994 116.224 50.9517C116.224 51.7969 116.067 52.5355 115.755 53.1676C115.446 53.7997 115.013 54.2915 114.455 54.6431C113.901 54.9947 113.255 55.1705 112.516 55.1705ZM112.516 54.0412C113.077 54.0412 113.539 53.8974 113.901 53.6097C114.263 53.3221 114.531 52.9439 114.706 52.4751C114.88 52.0064 114.967 51.4986 114.967 50.9517C114.967 50.4048 114.88 49.8952 114.706 49.4229C114.531 48.9506 114.263 48.5689 113.901 48.2777C113.539 47.9865 113.077 47.8409 112.516 47.8409C111.955 47.8409 111.494 47.9865 111.131 48.2777C110.769 48.5689 110.501 48.9506 110.327 49.4229C110.153 49.8952 110.066 50.4048 110.066 50.9517C110.066 51.4986 110.153 52.0064 110.327 52.4751C110.501 52.9439 110.769 53.3221 111.131 53.6097C111.494 53.8974 111.955 54.0412 112.516 54.0412ZM118.743 55V46.8182H119.957V48.054H120.042C120.191 47.6491 120.461 47.3207 120.852 47.0685C121.243 46.8164 121.683 46.6903 122.173 46.6903C122.265 46.6903 122.381 46.6921 122.519 46.6957C122.658 46.6992 122.762 46.7045 122.833 46.7116V47.9901C122.791 47.9794 122.693 47.9634 122.541 47.9421C122.391 47.9173 122.233 47.9048 122.066 47.9048C121.669 47.9048 121.314 47.9883 121.001 48.1552C120.692 48.3185 120.447 48.5458 120.266 48.837C120.088 49.1246 120 49.4531 120 49.8224V55H118.743ZM125.982 58.0682C125.769 58.0682 125.579 58.0504 125.412 58.0149C125.245 57.983 125.13 57.951 125.066 57.919L125.386 56.8111C125.691 56.8892 125.961 56.9176 126.195 56.8963C126.43 56.875 126.637 56.7702 126.819 56.582C127.003 56.3974 127.172 56.0973 127.325 55.6818L127.559 55.0426L124.533 46.8182H125.897L128.156 53.3381H128.241L130.499 46.8182H131.863L128.39 56.1932C128.234 56.6158 128.04 56.9656 127.809 57.2425C127.579 57.5231 127.31 57.7308 127.005 57.8658C126.703 58.0007 126.362 58.0682 125.982 58.0682ZM145.077 46.8182C145.013 46.2784 144.754 45.8594 144.3 45.5611C143.845 45.2628 143.288 45.1136 142.627 45.1136C142.144 45.1136 141.722 45.1918 141.359 45.348C141.001 45.5043 140.72 45.7191 140.518 45.9925C140.319 46.266 140.219 46.5767 140.219 46.9247C140.219 47.2159 140.289 47.4663 140.427 47.6758C140.569 47.8817 140.75 48.054 140.97 48.1925C141.191 48.3274 141.421 48.4393 141.663 48.5281C141.904 48.6133 142.126 48.6825 142.329 48.7358L143.437 49.0341C143.721 49.1087 144.037 49.2116 144.385 49.343C144.736 49.4744 145.072 49.6538 145.392 49.881C145.715 50.1048 145.981 50.3924 146.191 50.744C146.4 51.0955 146.505 51.527 146.505 52.0384C146.505 52.6278 146.35 53.1605 146.041 53.6364C145.736 54.1122 145.289 54.4904 144.699 54.771C144.113 55.0515 143.401 55.1918 142.563 55.1918C141.782 55.1918 141.105 55.0657 140.534 54.8136C139.965 54.5614 139.518 54.2099 139.191 53.7589C138.868 53.3079 138.685 52.7841 138.643 52.1875H140.006C140.042 52.5994 140.18 52.9403 140.422 53.2102C140.667 53.4766 140.976 53.6754 141.349 53.8068C141.725 53.9347 142.13 53.9986 142.563 53.9986C143.067 53.9986 143.52 53.9169 143.921 53.7536C144.323 53.5866 144.641 53.3558 144.875 53.0611C145.109 52.7628 145.227 52.4148 145.227 52.017C145.227 51.6548 145.125 51.3601 144.923 51.1328C144.72 50.9055 144.454 50.7209 144.124 50.5788C143.794 50.4368 143.437 50.3125 143.053 50.206L141.711 49.8224C140.859 49.5774 140.184 49.2276 139.687 48.7731C139.19 48.3185 138.941 47.7237 138.941 46.9886C138.941 46.3778 139.106 45.8452 139.436 45.3906C139.77 44.9325 140.218 44.5774 140.779 44.3253C141.343 44.0696 141.974 43.9418 142.67 43.9418C143.373 43.9418 143.998 44.0678 144.545 44.32C145.092 44.5685 145.525 44.9094 145.844 45.3427C146.168 45.7759 146.338 46.2678 146.356 46.8182H145.077ZM150.364 50.0781V55H149.106V44.0909H150.364V48.0966H150.47C150.662 47.674 150.949 47.3384 151.333 47.0898C151.72 46.8377 152.235 46.7116 152.878 46.7116C153.435 46.7116 153.924 46.8235 154.343 47.0472C154.762 47.2674 155.087 47.6065 155.317 48.0646C155.552 48.5192 155.669 49.098 155.669 49.8011V55H154.412V49.8864C154.412 49.2365 154.243 48.734 153.906 48.3789C153.572 48.0202 153.109 47.8409 152.516 47.8409C152.104 47.8409 151.734 47.9279 151.408 48.1019C151.084 48.2759 150.829 48.5298 150.641 48.8636C150.456 49.1974 150.364 49.6023 150.364 50.0781ZM161.893 55.1705C161.154 55.1705 160.506 54.9947 159.948 54.6431C159.394 54.2915 158.961 53.7997 158.649 53.1676C158.34 52.5355 158.185 51.7969 158.185 50.9517C158.185 50.0994 158.34 49.3555 158.649 48.7198C158.961 48.0842 159.394 47.5906 159.948 47.239C160.506 46.8874 161.154 46.7116 161.893 46.7116C162.631 46.7116 163.278 46.8874 163.832 47.239C164.389 47.5906 164.822 48.0842 165.131 48.7198C165.444 49.3555 165.6 50.0994 165.6 50.9517C165.6 51.7969 165.444 52.5355 165.131 53.1676C164.822 53.7997 164.389 54.2915 163.832 54.6431C163.278 54.9947 162.631 55.1705 161.893 55.1705ZM161.893 54.0412C162.454 54.0412 162.915 53.8974 163.278 53.6097C163.64 53.3221 163.908 52.9439 164.082 52.4751C164.256 52.0064 164.343 51.4986 164.343 50.9517C164.343 50.4048 164.256 49.8952 164.082 49.4229C163.908 48.9506 163.64 48.5689 163.278 48.2777C162.915 47.9865 162.454 47.8409 161.893 47.8409C161.332 47.8409 160.87 47.9865 160.508 48.2777C160.145 48.5689 159.877 48.9506 159.703 49.4229C159.529 49.8952 159.442 50.4048 159.442 50.9517C159.442 51.4986 159.529 52.0064 159.703 52.4751C159.877 52.9439 160.145 53.3221 160.508 53.6097C160.87 53.8974 161.332 54.0412 161.893 54.0412ZM168.119 58.0682V46.8182H169.333V48.1179H169.483C169.575 47.9759 169.703 47.7947 169.866 47.5746C170.033 47.3509 170.271 47.152 170.58 46.978C170.892 46.8004 171.315 46.7116 171.848 46.7116C172.537 46.7116 173.144 46.8839 173.669 47.2283C174.195 47.5728 174.605 48.0611 174.9 48.6932C175.195 49.3253 175.342 50.071 175.342 50.9304C175.342 51.7969 175.195 52.5479 174.9 53.1836C174.605 53.8157 174.197 54.3058 173.675 54.6538C173.153 54.9982 172.551 55.1705 171.869 55.1705C171.343 55.1705 170.923 55.0835 170.607 54.9094C170.29 54.7319 170.047 54.5312 169.877 54.3075C169.706 54.0803 169.575 53.892 169.483 53.7429H169.376V58.0682H168.119ZM169.355 50.9091C169.355 51.527 169.445 52.0721 169.626 52.5444C169.807 53.0131 170.072 53.3807 170.42 53.647C170.768 53.9098 171.194 54.0412 171.698 54.0412C172.224 54.0412 172.663 53.9027 173.014 53.6257C173.369 53.3452 173.636 52.9687 173.813 52.4964C173.994 52.0206 174.085 51.4915 174.085 50.9091C174.085 50.3338 173.996 49.8153 173.819 49.3537C173.644 48.8885 173.38 48.521 173.025 48.2511C172.673 47.9776 172.231 47.8409 171.698 47.8409C171.187 47.8409 170.757 47.9705 170.409 48.2298C170.061 48.4854 169.799 48.8441 169.621 49.3058C169.444 49.7638 169.355 50.2983 169.355 50.9091Z" fill="black"/>
<path d="M6.20459 52.7507L11.0468 43.3796C11.4561 42.587 12.0855 41.9203 12.8644 41.4544C13.6432 40.9886 14.5408 40.7418 15.4565 40.7419C16.764 40.7419 18.0179 41.2446 18.9425 42.1393C19.867 43.034 20.3864 44.2475 20.3864 45.5129V52.7507H6.20459Z" fill="#006FDB"/>
<path d="M15.9544 46.7464C16.9334 46.7464 17.7271 45.9783 17.7271 45.0308C17.7271 44.0833 16.9334 43.3153 15.9544 43.3153C14.9753 43.3153 14.1816 44.0833 14.1816 45.0308C14.1816 45.9783 14.9753 46.7464 15.9544 46.7464Z" fill="#2B2B37"/>
<path d="M13.056 27.8754C13.2512 28.2025 13.3293 28.5828 13.2783 28.9573C13.2273 29.3318 13.05 29.6795 12.774 29.9465C12.4979 30.2136 12.1385 30.3849 11.7515 30.4341C11.3645 30.4833 10.9715 30.4074 10.6336 30.2184C10.2957 30.0294 10.0317 29.7377 9.88255 29.3886C9.73342 29.0396 9.70749 28.6526 9.80881 28.2879C9.91012 27.9231 10.133 27.6009 10.4429 27.3712C10.7527 27.1415 11.1323 27.0172 11.5226 27.0176C11.8336 27.0175 12.1391 27.0967 12.4083 27.2473C12.6775 27.3979 12.9009 27.6145 13.056 27.8754ZM12.409 18.4399C13.0381 18.439 13.6471 18.6545 14.1274 19.0478C14.6077 19.4411 14.9281 19.9867 15.0313 20.5873C15.1346 21.1879 15.0141 21.8045 14.6912 22.3271C14.3684 22.8497 13.8643 23.2444 13.2687 23.4407C12.9932 23.5376 12.7022 23.587 12.409 23.5865C11.7037 23.5865 11.0274 23.3154 10.5287 22.8328C10.03 22.3502 9.74987 21.6957 9.74987 21.0132C9.7479 20.7364 9.79282 20.4611 9.88282 20.1983C10.086 19.6136 10.4976 19.118 11.044 18.8002C11.4584 18.5663 11.9292 18.4421 12.409 18.4399Z" fill="#2B2B37"/>
<path d="M31.9091 42.4575L32.7955 45.0308L24.8182 48.4619L23.9318 45.8886L31.9091 42.4575ZM13.2689 23.4407L15.3961 27.8754H13.0561C12.8606 27.5492 12.5595 27.2944 12.1993 27.1505C11.8392 27.0066 11.44 26.9815 11.0637 27.0791C10.6873 27.1768 10.3547 27.3917 10.1172 27.6907C9.87974 27.9897 9.75069 28.3561 9.75 28.7331L8.64205 29.5394C7.88507 30.0886 7.27069 30.8009 6.8476 31.6198C6.42451 32.4386 6.20434 33.3416 6.20455 34.2572C6.20181 34.6139 6.23446 34.9701 6.30205 35.3208C6.63 36.9935 7.87977 41.7541 11.5227 42.4575L11.6025 42.5347C11.3879 42.7962 11.2009 43.0778 11.0441 43.3753L8.86364 47.6041C8.86364 47.6041 0 43.3153 0 31.3065C0 24.4443 5.31818 20.1554 5.31818 20.1554H9.75L9.88295 20.1983C9.79295 20.4611 9.74804 20.7364 9.75 21.0132C9.75 21.6957 10.0302 22.3502 10.5288 22.8328C11.0275 23.3154 11.7039 23.5865 12.4091 23.5865C12.7023 23.587 12.9933 23.5376 13.2689 23.4407Z" fill="#EDF4FA"/>
<path d="M31.608 37.551C31.7015 37.7435 31.713 37.9639 31.64 38.1645C31.5671 38.3651 31.4155 38.5299 31.218 38.6232L26.7861 40.6647C26.6892 40.7097 26.584 40.7354 26.4766 40.7402C26.3692 40.7451 26.2619 40.7291 26.1611 40.6931C26.0603 40.6571 25.9679 40.6019 25.8895 40.5307C25.8111 40.4595 25.7483 40.3738 25.7048 40.2787L25.1021 39.0092L31.0407 36.333L31.608 37.551Z" fill="#A8B7D4"/>
<path d="M31.0407 36.333L25.102 39.0092L21.273 40.7419L20.1118 37.9885L33.5136 32.1471L34.5684 34.7375L31.0407 36.333Z" fill="#006FDB"/>
<path d="M12.4356 3L15.4847 9.36466L10.5831 11.5949L7.53405 5.23021L12.4356 3ZM23.0986 25.2849L26.1477 31.6496L21.2461 33.8798L18.197 27.5151L23.0986 25.2849ZM39 56.1818H3.54541C3.54709 55.272 3.91978 54.3997 4.58246 53.7543C5.04012 53.3184 5.60897 53.0077 6.23109 52.8537C6.5121 52.7847 6.80095 52.7501 7.09086 52.7507H35.4545C36.3948 52.7507 37.2966 53.1122 37.9615 53.7557C38.6264 54.3991 39 55.2718 39 56.1818Z" fill="#393D48"/>
<path d="M13.2688 23.4407C13.8644 23.2443 14.3685 22.8497 14.6914 22.3271C15.0142 21.8045 15.1347 21.1879 15.0314 20.5873C14.9282 19.9867 14.6078 19.4411 14.1276 19.0478C13.6473 18.6545 13.0382 18.439 12.4091 18.4399C11.9293 18.4421 11.4586 18.5663 11.0441 18.8001L8.12793 12.71L10.5832 11.5949L15.4847 9.36466L17.9311 8.25814L25.5538 24.1698L23.0986 25.2849L18.197 27.5151L15.7507 28.6216L15.3961 27.8754L13.2688 23.4407Z" fill="#006FDB"/>
<path d="M13.152 9.18626C12.7199 9.36548 12.2319 9.37127 11.7954 9.20237C11.3589 9.03347 11.0096 8.7037 10.8244 8.2856L9.14648 4.49682L7.53418 5.23022L10.5833 11.5949L15.4849 9.36467L15.0266 8.40912L13.152 9.18626ZM21.8817 28.01L23.9319 27.0176L23.0987 25.2849L18.1971 27.5151L21.2462 33.8798L22.4277 33.342L21.045 30.2197C20.8671 29.8176 20.8546 29.3648 21.0102 28.9541C21.1657 28.5434 21.4775 28.2057 21.8817 28.01Z" fill="#2B2B37"/>
<path d="M22.5059 23.2005C21.2328 23.7605 19.7831 23.8127 18.4705 23.3459C17.158 22.879 16.0882 21.9307 15.4929 20.7061L10.9725 11.4165L10.5807 11.5949L8.12549 12.71L11.0416 18.8001C11.4569 18.5659 11.9286 18.4416 12.4093 18.4399C13.0384 18.439 13.6475 18.6545 14.1278 19.0478C14.6081 19.4411 14.9284 19.9867 15.0317 20.5873C15.1349 21.1879 15.0144 21.8045 14.6916 22.3271C14.3687 22.8497 13.8646 23.2443 13.2691 23.4407L15.3963 27.8754L15.7509 28.6216L18.1972 27.5151L23.0988 25.2849L25.5541 24.1698L24.6411 22.2613L22.5059 23.2005Z" fill="#004080"/>
<path d="M18.6136 15.0088C18.4481 15.0097 18.2857 14.9657 18.1447 14.8819C18.0038 14.798 17.8898 14.6777 17.8159 14.5345L16.0431 11.1034C15.9381 10.8998 15.9209 10.6641 15.9953 10.4482C16.0698 10.2323 16.2298 10.0539 16.4402 9.95224C16.6506 9.85055 16.8942 9.83391 17.1172 9.90598C17.3403 9.97804 17.5247 10.1329 17.6297 10.3365L19.4025 13.7676C19.4698 13.8981 19.5017 14.043 19.4951 14.1888C19.4885 14.3345 19.4435 14.4762 19.3646 14.6004C19.2856 14.7247 19.1752 14.8274 19.0438 14.8988C18.9124 14.9703 18.7643 15.0081 18.6136 15.0088Z" fill="#02B9F2"/>
<path d="M23.8142 37.8504C23.6063 37.9367 23.3722 37.9429 23.1598 37.8676C22.9474 37.7924 22.7727 37.6413 22.6716 37.4455L22.4305 36.978L20.1118 37.9885L21.273 40.7419L25.102 39.0092L31.0407 36.333L34.5684 34.7375L34.041 33.4432L23.8142 37.8504Z" fill="#004080"/>
<path d="M28.2868 38.2973L31.3429 36.9823L31.0407 36.333L25.1021 39.0092L25.7048 40.2787C25.7483 40.3738 25.8111 40.4595 25.8895 40.5307C25.9679 40.6019 26.0603 40.6571 26.1611 40.6931C26.2619 40.7291 26.3692 40.7451 26.4766 40.7402C26.584 40.7354 26.6892 40.7097 26.7861 40.6647L27.3348 40.4117C27.1921 40.0079 27.2107 39.567 27.3868 39.1757C27.563 38.7845 27.884 38.4711 28.2868 38.2973Z" fill="#8698BA"/>
<path d="M27.4833 46.3629C27.3702 46.4115 27.2479 46.4366 27.1241 46.4366C27.0004 46.4367 26.878 46.4117 26.7649 46.3632C26.6518 46.3147 26.5504 46.2439 26.4673 46.1552C26.3842 46.0665 26.3211 45.9619 26.2823 45.8483L25.9907 45.0016L23.9316 45.8886L24.818 48.4619L32.7953 45.0308L32.509 44.2005L27.4833 46.3629Z" fill="#C1CFE8"/>
<path d="M12.409 22.7287C13.388 22.7287 14.1817 21.9607 14.1817 21.0132C14.1817 20.0657 13.388 19.2976 12.409 19.2976C11.4299 19.2976 10.6362 20.0657 10.6362 21.0132C10.6362 21.9607 11.4299 22.7287 12.409 22.7287Z" fill="#8394B2"/>
<path d="M11.5226 29.5909C12.0121 29.5909 12.409 29.2069 12.409 28.7331C12.409 28.2594 12.0121 27.8754 11.5226 27.8754C11.0331 27.8754 10.6362 28.2594 10.6362 28.7331C10.6362 29.2069 11.0331 29.5909 11.5226 29.5909Z" fill="#8394B2"/>
<path d="M15.9547 45.8886C16.4442 45.8886 16.8411 45.5045 16.8411 45.0308C16.8411 44.5571 16.4442 44.173 15.9547 44.173C15.4652 44.173 15.0684 44.5571 15.0684 45.0308C15.0684 45.5045 15.4652 45.8886 15.9547 45.8886Z" fill="#8394B2"/>
<path d="M18.4178 51.0352H15.4644C12.6547 51.0352 10.749 48.5477 11.8303 46.2849L13.7236 42.3254C13.9397 41.9036 14.2612 41.5407 14.6588 41.2695C15.0564 40.9982 15.5176 40.8272 16.0007 40.772C15.82 40.7524 15.6383 40.7424 15.4565 40.7419C14.5408 40.7418 13.6432 40.9886 12.8644 41.4544C12.0855 41.9203 11.4561 42.587 11.0468 43.3796L6.20459 52.7507H20.3864V49.3196C20.3591 49.7993 20.1368 50.249 19.7679 50.5705C19.399 50.892 18.9136 51.059 18.4178 51.0352Z" fill="#004080"/>
<path d="M37.8397 53.6583C37.6815 53.9052 37.4608 54.1089 37.1985 54.2503C36.9363 54.3917 36.6411 54.466 36.3409 54.4663H9.74996C9.51488 54.4663 9.28943 54.3759 9.1232 54.215C8.95698 54.0542 8.86359 53.836 8.86359 53.6085C8.86359 53.381 8.95698 53.1628 9.1232 53.002C9.28943 52.8411 9.51488 52.7507 9.74996 52.7507H7.09086C6.80095 52.7501 6.5121 52.7847 6.23109 52.8537C5.60897 53.0077 5.04012 53.3184 4.58246 53.7543C3.91978 54.3997 3.54709 55.272 3.54541 56.1818H39C38.9992 55.7061 38.8955 55.2359 38.6957 54.8013C38.4959 54.3666 38.2043 53.9773 37.8397 53.6583Z" fill="#2B2B37"/>
<path d="M13.2688 23.4407C12.9932 23.5376 12.7022 23.587 12.409 23.5865C11.7038 23.5865 11.0274 23.3154 10.5287 22.8328C10.0301 22.3502 9.7499 21.6957 9.7499 21.0132C9.74794 20.7364 9.79285 20.4611 9.88285 20.1983L9.7499 20.1554H5.31808L7.25745 23.9099C7.43875 24.2699 7.48484 24.6797 7.38778 25.069C7.29073 25.4583 7.0566 25.8028 6.72563 26.0432C5.41735 27.0287 3.54535 29.1191 3.54535 33.022C3.52138 36.0782 4.49406 39.0639 6.32499 41.5542C6.53732 41.8421 6.65351 42.1859 6.65794 42.5395C6.66238 42.8931 6.55485 43.2395 6.34981 43.5323L5.36683 44.9605C6.38771 46.0076 7.56667 46.8989 8.86354 47.6041L11.044 43.3753C11.2008 43.0778 11.3878 42.7962 11.6024 42.5347L11.5226 42.4575C7.87967 41.7541 6.6299 36.9935 6.30195 35.3208C6.23436 34.9701 6.20171 34.6139 6.20445 34.2572C6.20424 33.3416 6.42441 32.4386 6.8475 31.6198C7.27059 30.8009 7.88497 30.0886 8.64195 29.5394L9.7499 28.7331C9.75059 28.3561 9.87964 27.9897 10.1171 27.6907C10.3546 27.3917 10.6872 27.1768 11.0636 27.0791C11.4399 26.9815 11.8391 27.0066 12.1992 27.1505C12.5594 27.2944 12.8605 27.5492 13.056 27.8754H15.396L13.2688 23.4407ZM35.3773 31.339C35.2806 31.1319 35.1029 30.9704 34.8832 30.8899C34.6634 30.8095 34.4197 30.8168 34.2056 30.9102L17.3647 38.2475C17.2092 38.3149 17.0772 38.4242 16.9843 38.5624C16.8914 38.7005 16.8416 38.8616 16.8408 39.0264V40.9358C17.4716 41.1143 18.0593 41.4129 18.5692 41.8142C18.5936 41.7448 18.6085 41.6728 18.6135 41.5997V39.5805L34.9306 32.473C35.0369 32.427 35.1328 32.3611 35.2128 32.2792C35.2928 32.1973 35.3553 32.1009 35.3968 31.9956C35.4383 31.8903 35.4579 31.7781 35.4546 31.6655C35.4512 31.5528 35.425 31.4419 35.3773 31.339Z" fill="#C1CFE8"/>
<path d="M32.2688 43.2415C32.3752 43.1958 32.4713 43.1302 32.5515 43.0485C32.6317 42.9669 32.6945 42.8707 32.7363 42.7656C32.7781 42.6605 32.7981 42.5484 32.7951 42.4358C32.7922 42.3231 32.7664 42.2122 32.7191 42.1092C32.6718 42.0063 32.6041 41.9133 32.5197 41.8357C32.4353 41.7581 32.336 41.6973 32.2274 41.6569C32.1187 41.6164 32.0029 41.597 31.8865 41.5999C31.7701 41.6027 31.6555 41.6277 31.5491 41.6735L20.3862 46.4744V48.3521L32.2688 43.2415Z" fill="#8394B2"/>
</svg>
